<?xml version="1.0" encoding="utf-8"?>
<!-- Generator: Adobe Illustrator 25.3.1, SVG Export Plug-In . SVG Version: 6.00 Build 0)  -->
<svg version="1.1" id="레이어_1" xmlns="http://www.w3.org/2000/svg" xmlns:xlink="http://www.w3.org/1999/xlink" x="0px"
	 y="0px" viewBox="0 0 169.24 61.93" style="enable-background:new 0 0 169.24 61.93;" xml:space="preserve">
<style type="text/css">
	.st0{fill:#231814;}
	.st1{fill:none;stroke:#231813;stroke-width:0.5;stroke-miterlimit:10;}
</style>
<g>
	<g>
		<g>
			<path class="st0" d="M36.13,20.43c0,2.15-0.29,4.15-0.87,6.01c-0.58,1.86-1.43,3.52-2.55,4.96c-1.12,1.44-2.48,2.63-4.09,3.58
				c-1.6,0.95-3.51,1.36-3.51,1.36c-1.1,0.24-2.01,1.37-2.01,2.51v6.32c0,1.14,0.93,2.06,2.06,2.06H38.6c1.14,0,2.06,0.93,2.06,2.06
				v0.34c0,1.14-0.04,2.44-0.07,2.9c0,0,0,0-0.15,0.22c-0.15,0.22-0.15,0.22-0.15,0.22c-0.35,0.06-1.57,0.11-2.71,0.11H3.48
				c-1.14,0-2.35-0.05-2.71-0.11c0,0,0,0-0.15-0.22s-0.15-0.22-0.15-0.22c-0.04-0.46-0.07-1.76-0.07-2.9V49.3
				c0-1.14,0.93-2.06,2.06-2.06h13.44c1.14,0,2.06-0.93,2.06-2.06v-6.35c0-1.14-0.91-2.27-2.01-2.51c0,0-1.92-0.42-3.53-1.36
				c-1.63-0.95-3-2.14-4.11-3.58c-1.12-1.44-1.97-3.09-2.55-4.96c-0.58-1.86-0.87-3.86-0.87-6.01c0-2.37,0.35-4.54,1.07-6.54
				c0.7-1.99,1.73-3.74,3.09-5.22c1.36-1.49,2.98-2.64,4.91-3.48c1.92-0.84,4.11-1.25,6.56-1.25s4.65,0.41,6.59,1.25
				c1.94,0.84,3.57,1.99,4.91,3.48c1.33,1.49,2.35,3.23,3.05,5.22C35.77,15.88,36.13,18.09,36.13,20.43z M20.54,9.6
				c-3.3,0-5.88,0.96-7.74,2.89S10,17.07,10,20.44c0,3.32,0.93,5.97,2.79,7.91c1.86,1.95,4.44,2.92,7.74,2.92
				c3.28,0,5.84-0.97,7.69-2.92s2.79-4.59,2.79-7.91c0-3.37-0.93-6.02-2.79-7.95C26.38,10.56,23.81,9.6,20.54,9.6z"/>
			<path class="st1" d="M36.13,20.43c0,2.15-0.29,4.15-0.87,6.01c-0.58,1.86-1.43,3.52-2.55,4.96c-1.12,1.44-2.48,2.63-4.09,3.58
				c-1.6,0.95-3.51,1.36-3.51,1.36c-1.1,0.24-2.01,1.37-2.01,2.51v6.32c0,1.14,0.93,2.06,2.06,2.06H38.6c1.14,0,2.06,0.93,2.06,2.06
				v0.34c0,1.14-0.04,2.44-0.07,2.9c0,0,0,0-0.15,0.22c-0.15,0.22-0.15,0.22-0.15,0.22c-0.35,0.06-1.57,0.11-2.71,0.11H3.48
				c-1.14,0-2.35-0.05-2.71-0.11c0,0,0,0-0.15-0.22s-0.15-0.22-0.15-0.22c-0.04-0.46-0.07-1.76-0.07-2.9V49.3
				c0-1.14,0.93-2.06,2.06-2.06h13.44c1.14,0,2.06-0.93,2.06-2.06v-6.35c0-1.14-0.91-2.27-2.01-2.51c0,0-1.92-0.42-3.53-1.36
				c-1.63-0.95-3-2.14-4.11-3.58c-1.12-1.44-1.97-3.09-2.55-4.96c-0.58-1.86-0.87-3.86-0.87-6.01c0-2.37,0.35-4.54,1.07-6.54
				c0.7-1.99,1.73-3.74,3.09-5.22c1.36-1.49,2.98-2.64,4.91-3.48c1.92-0.84,4.11-1.25,6.56-1.25s4.65,0.41,6.59,1.25
				c1.94,0.84,3.57,1.99,4.91,3.48c1.33,1.49,2.35,3.23,3.05,5.22C35.77,15.88,36.13,18.09,36.13,20.43z M20.54,9.6
				c-3.3,0-5.88,0.96-7.74,2.89S10,17.07,10,20.44c0,3.32,0.93,5.97,2.79,7.91c1.86,1.95,4.44,2.92,7.74,2.92
				c3.28,0,5.84-0.97,7.69-2.92s2.79-4.59,2.79-7.91c0-3.37-0.93-6.02-2.79-7.95C26.38,10.56,23.81,9.6,20.54,9.6z"/>
		</g>
		<g>
			<path class="st0" d="M45.98,32.52c-1.14,0-2.35-0.05-2.71-0.11c0,0,0,0-0.15-0.22c-0.15-0.22-0.15-0.22-0.15-0.22
				c-0.04-0.46-0.07-1.76-0.07-2.9v-0.34c0-1.14,0.93-2.06,2.06-2.06h36.11c1.14,0,2.06,0.93,2.06,2.06v0.34
				c0,1.14-0.04,2.44-0.07,2.9c0,0,0,0-0.15,0.22s-0.15,0.22-0.15,0.22c-0.35,0.06-1.57,0.11-2.71,0.11H45.98z M72.91,43.59
				c0-0.7-0.93-1.29-2.06-1.29H50.19c-1.14,0-2.06-0.93-2.06-2.06v-1.46c0-1.14,0.93-2.06,2.06-2.06h25.72
				c1.14,0,2.06,0.93,2.06,2.06v6.65c0,1.14-0.08,2.98-0.18,4.13c0,0-0.04,0.41-0.46,1.03C76.9,51.2,76.9,51.2,76.9,51.2
				c-1.08,0.17-2.89,0.3-4.03,0.3H55.23c-1.14,0-2.06,0.49-2.06,1.08s0.06,1.64,0.15,2.31c0,0,0,0,0.28,0.22s0.79,0.38,1.52,0.46
				c1.1,0.13,2.09,0.22,2.95,0.27c0.86,0.05,1.87,0.06,3,0.06c1.26,0,2.67-0.05,4.25-0.13c1.58-0.08,3.18-0.22,4.82-0.4
				c1.64-0.17,3.25-0.39,4.84-0.66s2.27-0.42,2.27-0.42c1.1-0.27,2.11,0.38,2.24,1.44c0.13,1.07,0.24,2.39,0.25,2.94
				c0,0,0,0-0.15,0.29c-0.15,0.28-0.15,0.28-0.15,0.28c-0.42,0.18-1.69,0.53-2.79,0.78c0,0-0.64,0.15-2.18,0.38
				c-1.54,0.24-3.12,0.44-4.72,0.59c-1.6,0.16-3.18,0.28-4.72,0.36c-1.54,0.08-2.92,0.13-4.15,0.13c-1.1,0-2.18-0.01-3.26-0.04
				c-1.07-0.02-2.16-0.1-3.26-0.23s-2.04-0.32-2.81-0.56c-0.78-0.24-1.42-0.59-1.94-1.06c-0.52-0.46-0.9-1.07-1.13-1.84
				c-0.23-0.76-0.24-0.92-0.24-0.92c-0.06-1.13-0.11-2.98-0.11-4.13v-4.74c0-1.14,0.93-2.06,2.06-2.06h19.91
				c1.14,0,2.23-0.07,2.44-0.17C72.74,45.65,72.91,44.3,72.91,43.59z M51.34,1.46c1.14,0,2.06,0.93,2.06,2.06v6.44
				c0,1.14,0.07,2.92,0.15,3.97c0,0,0,0,0.3,0.52c0.3,0.52,0.81,0.85,1.54,0.98c1.1,0.22,2.1,0.36,2.97,0.42
				c0.89,0.06,1.89,0.1,3.02,0.1c1.26,0,2.58-0.04,3.99-0.1c1.4-0.06,2.81-0.18,4.25-0.36c1.43-0.17,2.85-0.38,4.25-0.59
				c1.4-0.22,1.99-0.36,1.99-0.36c1.1-0.27,2.1,0.34,2.22,1.35c0.12,1.01,0.16,2.28,0.1,2.81c-0.06,0.53-1.83,1.4-2.94,1.65
				c0,0-3.19,0.73-6.04,1.02c-2.85,0.29-5.52,0.42-8.01,0.42c-1.1,0-2.2-0.04-3.29-0.1c-1.09-0.06-2.18-0.18-3.28-0.36
				c-2.17-0.35-3.76-1.12-4.77-2.29c-1.01-1.18-1.3-3.86-1.3-3.86c-0.12-1.13-0.22-2.98-0.22-4.11V3.51c0-1.14,0.93-2.06,2.06-2.06
				h0.93C51.34,1.44,51.34,1.46,51.34,1.46z"/>
			<path class="st1" d="M45.98,32.52c-1.14,0-2.35-0.05-2.71-0.11c0,0,0,0-0.15-0.22c-0.15-0.22-0.15-0.22-0.15-0.22
				c-0.04-0.46-0.07-1.76-0.07-2.9v-0.34c0-1.14,0.93-2.06,2.06-2.06h36.11c1.14,0,2.06,0.93,2.06,2.06v0.34
				c0,1.14-0.04,2.44-0.07,2.9c0,0,0,0-0.15,0.22s-0.15,0.22-0.15,0.22c-0.35,0.06-1.57,0.11-2.71,0.11H45.98z M72.91,43.59
				c0-0.7-0.93-1.29-2.06-1.29H50.19c-1.14,0-2.06-0.93-2.06-2.06v-1.46c0-1.14,0.93-2.06,2.06-2.06h25.72
				c1.14,0,2.06,0.93,2.06,2.06v6.65c0,1.14-0.08,2.98-0.18,4.13c0,0-0.04,0.41-0.46,1.03C76.9,51.2,76.9,51.2,76.9,51.2
				c-1.08,0.17-2.89,0.3-4.03,0.3H55.23c-1.14,0-2.06,0.49-2.06,1.08s0.06,1.64,0.15,2.31c0,0,0,0,0.28,0.22s0.79,0.38,1.52,0.46
				c1.1,0.13,2.09,0.22,2.95,0.27c0.86,0.05,1.87,0.06,3,0.06c1.26,0,2.67-0.05,4.25-0.13c1.58-0.08,3.18-0.22,4.82-0.4
				c1.64-0.17,3.25-0.39,4.84-0.66s2.27-0.42,2.27-0.42c1.1-0.27,2.11,0.38,2.24,1.44c0.13,1.07,0.24,2.39,0.25,2.94
				c0,0,0,0-0.15,0.29c-0.15,0.28-0.15,0.28-0.15,0.28c-0.42,0.18-1.69,0.53-2.79,0.78c0,0-0.64,0.15-2.18,0.38
				c-1.54,0.24-3.12,0.44-4.72,0.59c-1.6,0.16-3.18,0.28-4.72,0.36c-1.54,0.08-2.92,0.13-4.15,0.13c-1.1,0-2.18-0.01-3.26-0.04
				c-1.07-0.02-2.16-0.1-3.26-0.23s-2.04-0.32-2.81-0.56c-0.78-0.24-1.42-0.59-1.94-1.06c-0.52-0.46-0.9-1.07-1.13-1.84
				c-0.23-0.76-0.24-0.92-0.24-0.92c-0.06-1.13-0.11-2.98-0.11-4.13v-4.74c0-1.14,0.93-2.06,2.06-2.06h19.91
				c1.14,0,2.23-0.07,2.44-0.17C72.74,45.65,72.91,44.3,72.91,43.59z M51.34,1.46c1.14,0,2.06,0.93,2.06,2.06v6.44
				c0,1.14,0.07,2.92,0.15,3.97c0,0,0,0,0.3,0.52c0.3,0.52,0.81,0.85,1.54,0.98c1.1,0.22,2.1,0.36,2.97,0.42
				c0.89,0.06,1.89,0.1,3.02,0.1c1.26,0,2.58-0.04,3.99-0.1c1.4-0.06,2.81-0.18,4.25-0.36c1.43-0.17,2.85-0.38,4.25-0.59
				c1.4-0.22,1.99-0.36,1.99-0.36c1.1-0.27,2.1,0.34,2.22,1.35c0.12,1.01,0.16,2.28,0.1,2.81c-0.06,0.53-1.83,1.4-2.94,1.65
				c0,0-3.19,0.73-6.04,1.02c-2.85,0.29-5.52,0.42-8.01,0.42c-1.1,0-2.2-0.04-3.29-0.1c-1.09-0.06-2.18-0.18-3.28-0.36
				c-2.17-0.35-3.76-1.12-4.77-2.29c-1.01-1.18-1.3-3.86-1.3-3.86c-0.12-1.13-0.22-2.98-0.22-4.11V3.51c0-1.14,0.93-2.06,2.06-2.06
				h0.93C51.34,1.44,51.34,1.46,51.34,1.46z"/>
		</g>
		<g>
			<path class="st0" d="M123.35,57.53c0,1.14-0.07,2.38-0.17,2.75c-0.08,0.38-1.73,0.69-2.85,0.69c-1.12,0-2.03-0.93-2.03-2.06
				V47.93c0-1.14-0.9-1.83-2-1.54c0,0-0.91,0.24-2.58,0.57s-3.42,0.63-5.24,0.92c-1.83,0.29-3.68,0.53-5.54,0.75
				c-1.87,0.22-3.71,0.4-5.5,0.56c-1.8,0.16-3.51,0.28-5.12,0.36c-1.63,0.08-3.08,0.13-4.37,0.13c-0.44,0-0.75-0.08-0.95-0.27
				c-0.19-0.17-0.19-0.17-0.19-0.17c-0.11-0.63-0.29-2.06-0.42-3.19l-0.01-0.1c-0.12-1.13,0.7-2.07,1.83-2.11
				c0,0,2.72-0.08,5.47-0.23c2.75-0.16,5.57-0.39,8.43-0.69c2.86-0.3,5.7-0.68,8.5-1.12c2.8-0.44,5.69-1.1,5.69-1.1
				c1.1-0.25,2.01-1.4,2.01-2.54V2.41c0-1.14,0.93-2.06,2.06-2.06h0.92c1.14,0,2.06,0.93,2.06,2.06v55.12
				C123.36,57.53,123.35,57.53,123.35,57.53z M89.21,18.66c0-2.15,0.27-4.1,0.8-5.87c0.53-1.77,1.3-3.29,2.29-4.56
				c0.99-1.27,2.18-2.27,3.59-2.98c1.4-0.73,2.97-1.08,4.7-1.08c1.73,0,3.3,0.35,4.72,1.06c1.42,0.7,2.62,1.7,3.62,2.98
				c0.99,1.29,1.76,2.83,2.29,4.6s0.8,3.74,0.8,5.87c0,2.15-0.27,4.1-0.8,5.87c-0.53,1.77-1.3,3.3-2.29,4.6
				c-0.99,1.29-2.2,2.29-3.62,2.98c-1.42,0.7-3,1.06-4.72,1.06c-1.73,0-3.3-0.35-4.7-1.06c-1.4-0.7-2.6-1.7-3.59-2.98
				c-0.99-1.29-1.76-2.83-2.29-4.6C89.47,22.77,89.21,20.82,89.21,18.66z M107,18.66c0-2.45-0.51-4.49-1.53-6.1
				s-2.66-2.43-4.89-2.43c-2.14,0-3.74,0.8-4.79,2.4c-1.06,1.6-1.58,3.63-1.58,6.08c0,2.5,0.52,4.55,1.58,6.18
				c1.06,1.63,2.66,2.43,4.79,2.43c2.23,0,3.86-0.81,4.89-2.43C106.49,23.16,107,21.12,107,18.66z"/>
			<path class="st1" d="M123.35,57.53c0,1.14-0.07,2.38-0.17,2.75c-0.08,0.38-1.73,0.69-2.85,0.69c-1.12,0-2.03-0.93-2.03-2.06
				V47.93c0-1.14-0.9-1.83-2-1.54c0,0-0.91,0.24-2.58,0.57s-3.42,0.63-5.24,0.92c-1.83,0.29-3.68,0.53-5.54,0.75
				c-1.87,0.22-3.71,0.4-5.5,0.56c-1.8,0.16-3.51,0.28-5.12,0.36c-1.63,0.08-3.08,0.13-4.37,0.13c-0.44,0-0.75-0.08-0.95-0.27
				c-0.19-0.17-0.19-0.17-0.19-0.17c-0.11-0.63-0.29-2.06-0.42-3.19l-0.01-0.1c-0.12-1.13,0.7-2.07,1.83-2.11
				c0,0,2.72-0.08,5.47-0.23c2.75-0.16,5.57-0.39,8.43-0.69c2.86-0.3,5.7-0.68,8.5-1.12c2.8-0.44,5.69-1.1,5.69-1.1
				c1.1-0.25,2.01-1.4,2.01-2.54V2.41c0-1.14,0.93-2.06,2.06-2.06h0.92c1.14,0,2.06,0.93,2.06,2.06v55.12
				C123.36,57.53,123.35,57.53,123.35,57.53z M89.21,18.66c0-2.15,0.27-4.1,0.8-5.87c0.53-1.77,1.3-3.29,2.29-4.56
				c0.99-1.27,2.18-2.27,3.59-2.98c1.4-0.73,2.97-1.08,4.7-1.08c1.73,0,3.3,0.35,4.72,1.06c1.42,0.7,2.62,1.7,3.62,2.98
				c0.99,1.29,1.76,2.83,2.29,4.6s0.8,3.74,0.8,5.87c0,2.15-0.27,4.1-0.8,5.87c-0.53,1.77-1.3,3.3-2.29,4.6
				c-0.99,1.29-2.2,2.29-3.62,2.98c-1.42,0.7-3,1.06-4.72,1.06c-1.73,0-3.3-0.35-4.7-1.06c-1.4-0.7-2.6-1.7-3.59-2.98
				c-0.99-1.29-1.76-2.83-2.29-4.6C89.47,22.77,89.21,20.82,89.21,18.66z M107,18.66c0-2.45-0.51-4.49-1.53-6.1
				s-2.66-2.43-4.89-2.43c-2.14,0-3.74,0.8-4.79,2.4c-1.06,1.6-1.58,3.63-1.58,6.08c0,2.5,0.52,4.55,1.58,6.18
				c1.06,1.63,2.66,2.43,4.79,2.43c2.23,0,3.86-0.81,4.89-2.43C106.49,23.16,107,21.12,107,18.66z"/>
		</g>
		<g>
			<path class="st0" d="M150.4,3.5c1.14,0,2.06,0.93,2.06,2.06v14.33c0,1.14-0.13,2.98-0.3,4.1c0,0-0.58,3.88-2.37,5.87
				c-1.78,1.99-4.65,2.98-8.61,2.98c-3.93,0-6.78-0.99-8.53-2.98s-2.32-5.87-2.32-5.87c-0.17-1.13-0.3-2.97-0.3-4.1V5.56
				c0-1.14,0.93-2.06,2.06-2.06h0.97c1.14,0,2.06,0.93,2.06,2.06v3.63c0,1.14,0.93,2.06,2.06,2.06h8.1c1.14,0,2.06-0.93,2.06-2.06
				V5.56c0-1.14,0.93-2.06,2.06-2.06C149.42,3.5,150.4,3.5,150.4,3.5z M134.44,49.41c0-3.89,1.25-6.9,3.75-9.03
				c2.5-2.12,6.24-3.19,11.21-3.19s8.71,1.06,11.21,3.15c2.5,2.1,3.75,5.12,3.75,9.06c0,3.89-1.25,6.9-3.75,9.03
				c-2.5,2.12-6.24,3.19-11.21,3.19s-8.71-1.07-11.21-3.19C135.69,56.32,134.44,53.31,134.44,49.41z M141.19,27.02
				c0.91,0,1.75-0.07,2.5-0.23s1.41-0.42,1.97-0.83c0.55-0.4,0.97-0.96,1.27-1.67c0.3-0.73,0.3-0.8,0.3-0.8
				c0.08-1.13,0.15-2.98,0.15-4.13v-0.21c0-1.14-0.93-2.06-2.06-2.06h-8.1c-1.14,0-2.06,0.93-2.06,2.06v0.21
				c0,1.14,0.06,2.98,0.15,4.13c0,0,0,0.07,0.3,0.8c0.3,0.72,0.72,1.29,1.25,1.67c0.53,0.39,1.18,0.67,1.92,0.83
				C139.48,26.93,140.3,27.02,141.19,27.02z M159.31,49.41c0-2.23-0.85-3.86-2.55-4.89c-1.7-1.03-4.16-1.54-7.36-1.54
				c-3.22,0-5.67,0.51-7.36,1.54c-1.7,1.03-2.55,2.66-2.55,4.89s0.85,3.86,2.55,4.89c1.7,1.03,4.16,1.54,7.36,1.54
				c3.22,0,5.67-0.51,7.36-1.54C158.46,53.27,159.31,51.63,159.31,49.41z M163,11.95c0,1.14,0.93,2.06,2.06,2.06h1.72
				c1.14,0,2.06,0.93,2.06,2.06v0.4c0,1.14-0.04,2.44-0.07,2.9c0,0,0,0-0.15,0.22s-0.15,0.22-0.15,0.22
				c-0.35,0.06-1.57,0.11-2.71,0.11h-0.74c-1.14,0-2.06,0.93-2.06,2.06v10.58c0,1.14-0.07,2.38-0.17,2.75
				c-0.1,0.38-1.73,0.69-2.85,0.69s-2.03-0.93-2.03-2.06V2.41c0-1.14,0.93-2.06,2.06-2.06h0.92c1.14,0,2.06,0.93,2.06,2.06v9.54
				C162.97,11.95,163,11.95,163,11.95z"/>
			<path class="st1" d="M150.4,3.5c1.14,0,2.06,0.93,2.06,2.06v14.33c0,1.14-0.13,2.98-0.3,4.1c0,0-0.58,3.88-2.37,5.87
				c-1.78,1.99-4.65,2.98-8.61,2.98c-3.93,0-6.78-0.99-8.53-2.98s-2.32-5.87-2.32-5.87c-0.17-1.13-0.3-2.97-0.3-4.1V5.56
				c0-1.14,0.93-2.06,2.06-2.06h0.97c1.14,0,2.06,0.93,2.06,2.06v3.63c0,1.14,0.93,2.06,2.06,2.06h8.1c1.14,0,2.06-0.93,2.06-2.06
				V5.56c0-1.14,0.93-2.06,2.06-2.06C149.42,3.5,150.4,3.5,150.4,3.5z M134.44,49.41c0-3.89,1.25-6.9,3.75-9.03
				c2.5-2.12,6.24-3.19,11.21-3.19s8.71,1.06,11.21,3.15c2.5,2.1,3.75,5.12,3.75,9.06c0,3.89-1.25,6.9-3.75,9.03
				c-2.5,2.12-6.24,3.19-11.21,3.19s-8.71-1.07-11.21-3.19C135.69,56.32,134.44,53.31,134.44,49.41z M141.19,27.02
				c0.91,0,1.75-0.07,2.5-0.23s1.41-0.42,1.97-0.83c0.55-0.4,0.97-0.96,1.27-1.67c0.3-0.73,0.3-0.8,0.3-0.8
				c0.08-1.13,0.15-2.98,0.15-4.13v-0.21c0-1.14-0.93-2.06-2.06-2.06h-8.1c-1.14,0-2.06,0.93-2.06,2.06v0.21
				c0,1.14,0.06,2.98,0.15,4.13c0,0,0,0.07,0.3,0.8c0.3,0.72,0.72,1.29,1.25,1.67c0.53,0.39,1.18,0.67,1.92,0.83
				C139.48,26.93,140.3,27.02,141.19,27.02z M159.31,49.41c0-2.23-0.85-3.86-2.55-4.89c-1.7-1.03-4.16-1.54-7.36-1.54
				c-3.22,0-5.67,0.51-7.36,1.54c-1.7,1.03-2.55,2.66-2.55,4.89s0.85,3.86,2.55,4.89c1.7,1.03,4.16,1.54,7.36,1.54
				c3.22,0,5.67-0.51,7.36-1.54C158.46,53.27,159.31,51.63,159.31,49.41z M163,11.95c0,1.14,0.93,2.06,2.06,2.06h1.72
				c1.14,0,2.06,0.93,2.06,2.06v0.4c0,1.14-0.04,2.44-0.07,2.9c0,0,0,0-0.15,0.22s-0.15,0.22-0.15,0.22
				c-0.35,0.06-1.57,0.11-2.71,0.11h-0.74c-1.14,0-2.06,0.93-2.06,2.06v10.58c0,1.14-0.07,2.38-0.17,2.75
				c-0.1,0.38-1.73,0.69-2.85,0.69s-2.03-0.93-2.03-2.06V2.41c0-1.14,0.93-2.06,2.06-2.06h0.92c1.14,0,2.06,0.93,2.06,2.06v9.54
				C162.97,11.95,163,11.95,163,11.95z"/>
		</g>
	</g>
</g>
</svg>
